Coordinates
version=1
nRows=7
nColumns=40
inDegrees=yes

Units are S.I. units (second, meters, Newtons, ...)
If the header above contains a line with 'inDegrees', this indicates whether rotational values are in degrees (yes) or radians (no).

endheader
time	pelvis_tilt	pelvis_list	pelvis_rotation	pelvis_tx	pelvis_ty	pelvis_tz	hip_flexion_r	hip_adduction_r	hip_rotation_r	knee_angle_r	knee_angle_r_beta	ankle_angle_r	subtalar_angle_r	mtp_angle_r	hip_flexion_l	hip_adduction_l	hip_rotation_l	knee_angle_l	knee_angle_l_beta	ankle_angle_l	subtalar_angle_l	mtp_angle_l	lumbar_extension	lumbar_bending	lumbar_rotation	arm_flex_r	arm_add_r	arm_rot_r	elbow_flex_r	pro_sup_r	wrist_flex_r	wrist_dev_r	arm_flex_l	arm_add_l	arm_rot_l	elbow_flex_l	pro_sup_l	wrist_flex_l	wrist_dev_l
1749651035.69000006	     -1.25946605	     11.81445465	    -78.13785909	      0.15873237	     -0.39101740	      0.86913343	     80.00000000	     -7.00000000	      0.00000000	     80.00000000	      1.39626340	      0.00000000	      0.00000000	      0.00000000	     80.00000000	     -7.00000000	      0.00000000	     80.00000000	      1.39626340	      0.00000000	      0.00000000	      0.00000000	    -11.30026599	     -2.02763286	     10.16716211	     23.72571659	    -13.04983687	    -84.99930147	      0.32885701	      4.96709218	      0.00000000	      5.00000014	     13.87394837	     -4.06502157	      0.07876453	     74.99463622	     45.00004915	      0.00000000	      5.00000014
1749651035.75699997	     -6.01437038	     14.36712692	     -2.57941453	      0.21684356	     -0.40030385	      0.77823672	     80.00000000	     -7.00000000	      0.00000000	     80.00000000	      1.39626340	      0.00000000	      0.00000000	      0.00000000	     80.00000000	     -7.00000000	      0.00000000	     80.00000000	      1.39626340	      0.00000000	      0.00000000	      0.00000000	     -1.83458379	      5.91812715	    -63.67703375	     23.10276627	    -10.64944806	    -87.01459919	      0.20145771	      2.64983013	      0.00000000	      5.00000014	     14.40730686	     -7.01370892	      0.04827942	     74.99867230	     44.99998957	      0.00000000	      5.00000014
1749651035.85700011	     -1.66180144	     11.96427241	    -82.15703333	      0.15132196	     -0.39007387	      0.86545291	     80.00000000	     -7.00000000	      0.00000000	     80.00000000	      1.39626340	      0.00000000	      0.00000000	      0.00000000	     80.00000000	     -7.00000000	      0.00000000	     80.00000000	      1.39626340	      0.00000000	      0.00000000	      0.00000000	    -11.15121441	     -2.06173870	     13.09984519	     26.24504238	    -12.65210841	    -84.16145118	      0.38443394	     10.09608568	      0.00000000	      5.00000014	     13.95856563	     -4.02239819	      0.07827772	     74.99890694	     44.99999295	      0.00000000	      5.00000014
1749651035.89100003	     -5.62315185	     14.37624172	     -9.51869209	      0.21679897	     -0.40286464	      0.78640485	     80.00000000	     -7.00000000	      0.00000000	     80.00000000	      1.39626340	      0.00000000	      0.00000000	      0.00000000	     80.00000000	     -7.00000000	      0.00000000	     80.00000000	      1.39626340	      0.00000000	      0.00000000	      0.00000000	     -2.66928240	      5.81713677	    -58.25458836	     24.37785561	    -10.55273595	    -86.47617774	      0.22522425	      2.81612609	      0.00000000	      5.00000014	     13.89352161	     -7.22655009	      0.04638664	     74.99993323	     45.00000299	      0.00000000	      5.00000014
1749651035.92499995	     -1.24358503	     11.27188892	    -79.83607409	      0.15610945	     -0.38930425	      0.86793290	     80.00000000	     -7.00000000	      0.00000000	     80.00000000	      1.39626340	      0.00000000	      0.00000000	      0.00000000	     80.00000000	     -7.00000000	      0.00000000	     80.00000000	      1.39626340	      0.00000000	      0.00000000	      0.00000000	    -11.78093872	     -2.00334219	     10.85209991	     24.17866917	    -12.46948839	    -86.40707447	      0.25834890	      3.12157939	      0.00000000	      5.00000014	     13.73813105	     -4.09519818	      0.07750775	     74.99996765	     45.00000218	      0.00000000	      5.00000014
1749651035.95799994	     -1.09846868	     11.05559945	    -78.62046781	      0.15826557	     -0.38864243	      0.86904903	     80.00000000	     -7.00000000	      0.00000000	     80.00000000	      1.39626340	      0.00000000	      0.00000000	      0.00000000	     80.00000000	     -7.00000000	      0.00000000	     80.00000000	      1.39626340	      0.00000000	      0.00000000	      0.00000000	    -11.82736937	     -1.86508263	     10.43919755	     23.32263639	    -12.85921880	    -86.53107860	      0.26300999	      3.31793545	      0.00000000	      5.00000014	     14.17204239	     -3.96990076	      0.07822119	     74.99997383	     45.00000202	      0.00000000	      5.00000014
1749651035.99099994	     -0.99301443	     11.03599887	    -79.27826514	      0.15781856	     -0.38947357	      0.86887268	     80.00000000	     -7.00000000	      0.00000000	     80.00000000	      1.39626340	      0.00000000	      0.00000000	      0.00000000	     80.00000000	     -7.00000000	      0.00000000	     80.00000000	      1.39626340	      0.00000000	      0.00000000	      0.00000000	    -11.61267371	     -2.03164167	     10.93315831	     23.31895081	    -12.98680128	    -86.08333903	      0.26730703	      3.28820252	      0.00000000	      5.00000014	     14.14209345	     -3.74223499	      0.08054035	     74.99998121	     45.00000190	      0.00000000	      5.00000014
